<?xml version="1.0" encoding="utf-8"?>
<!-- Generator: Adobe Illustrator 17.0.0, SVG Export Plug-In . SVG Version: 6.00 Build 0)  -->
<!DOCTYPE svg PUBLIC "-//W3C//DTD SVG 1.1//EN" "http://www.w3.org/Graphics/SVG/1.1/DTD/svg11.dtd">
<svg version="1.1" id="Layer_1" xmlns="http://www.w3.org/2000/svg" xmlns:xlink="http://www.w3.org/1999/xlink" x="0px" y="0px"
	 width="1278.293px" height="192.31px" viewBox="0 0 1278.293 192.31" enable-background="new 0 0 1278.293 192.31"
	 xml:space="preserve">
<g>
	<path fill="#FFFFFF" d="M467.469,67.186c22.479-12.614,40.297-10.172,61.649,10.714c0.727-0.576,1.634-1.106,2.299-1.851
		c13.957-15.644,31.413-20.146,50.616-13.149c19.566,7.129,28.726,22.927,29.16,43.445c0.401,18.931,0.148,37.876,0.064,56.815
		c-0.026,5.853-1.71,11.338-8.771,10.977c-6.339-0.324-7.742-5.306-7.7-11.036c0.136-18.655,0.135-37.313,0.022-55.969
		c-0.109-17.915-12.43-31.112-28.784-31.088c-16.289,0.025-28.629,13.243-28.786,31.196c-0.16,18.372-0.108,36.748,0,55.121
		c0.034,5.81-0.585,11.551-7.704,11.772c-7.824,0.243-8.414-5.989-8.42-11.965c-0.019-18.091,0.181-36.185-0.083-54.272
		c-0.243-16.7-7.532-26.823-21.378-30.685c-17.471-4.873-35.124,7.693-35.582,25.921c-0.469,18.645-0.167,37.309-0.213,55.965
		c-0.006,2.26,0.757,5.066-0.291,6.665c-2.096,3.197-5.201,5.734-7.89,8.543c-2.817-2.944-7.627-5.622-8.064-8.885
		c-1.153-8.61-0.417-17.474-0.418-26.236c-0.004-22.048,0.002-44.097-0.003-66.145c-0.001-5.129-0.547-11.621,5.967-12.141
		C457.198,60.575,461.569,64.423,467.469,67.186z"/>
	<path fill="#FFFFFF" d="M991.367,125.179c3.395,25.706,35.353,42.269,61.014,26.69c1.685-1.023,3.23-3.161,4.872-3.194
		c3.79-0.076,8.808-0.499,11.129,1.624c3.868,3.537,2.05,8.094-1.923,11.585c-17.485,15.369-48.381,16.856-67.872,2.492
		c-19.338-14.252-28.354-33.435-23.858-57.551c4.4-23.598,18.874-38.65,41.835-45.071c34.824-9.739,70.231,16.854,71.42,53.318
		c0.252,7.718-4.058,10.21-11.25,10.167c-26.566-0.158-53.134-0.062-79.701-0.061C995.355,125.179,993.678,125.179,991.367,125.179z
		 M1069.958,108.36c-2.748-19.321-22.347-33.856-42.229-32.182c-18.616,1.567-35.662,16.981-35.377,32.182
		C1018.017,108.36,1043.684,108.36,1069.958,108.36z"/>
	<path fill="#FFFFFF" d="M645.095,125.179c3.407,25.727,35.376,42.264,61.02,26.687c1.685-1.024,3.231-3.162,4.873-3.194
		c3.79-0.074,8.809-0.492,11.128,1.632c3.865,3.541,2.04,8.096-1.934,11.585c-17.498,15.368-48.392,16.851-67.876,2.481
		c-19.633-14.48-28.588-33.988-23.706-58.368c4.632-23.132,19.035-37.948,41.683-44.255c34.839-9.702,70.235,16.854,71.43,53.323
		c0.253,7.718-4.055,10.213-11.248,10.17c-26.568-0.158-53.137-0.062-79.706-0.061C649.078,125.179,647.397,125.179,645.095,125.179
		z M723.476,108.254c-1.453-17.391-19.754-32.285-39.055-32.21c-19.327,0.076-37.493,15.053-38.724,32.21
		C671.626,108.254,697.533,108.254,723.476,108.254z"/>
	<path fill="#FFFFFF" d="M315.903,143.652c10.94-28.157,21.025-54.096,31.096-80.04c5.706-14.699,11.41-29.399,17.075-44.113
		c2.23-5.793,5.533-10.717,12.465-7.693c6.516,2.842,4.963,8.549,2.897,13.849c-18.307,46.953-36.501,93.952-55.116,140.783
		c-1.297,3.262-5.764,7.408-8.624,7.309c-2.928-0.102-6.996-4.404-8.331-7.757c-18.434-46.298-36.485-92.749-54.616-139.168
		c-0.512-1.31-0.787-2.714-1.319-4.014c-2.044-4.991-1.008-9.226,4.066-11.177c5.344-2.055,9.3,0.366,11.373,5.669
		c2.973,7.603,5.899,15.226,8.853,22.837C288.86,73.985,302,107.833,315.903,143.652z"/>
	<path fill="#FFFFFF" d="M815.445,174.379c-31.268-0.13-57.22-26.151-57.174-57.326c0.046-31.363,25.57-56.903,57.161-57.199
		c31.56-0.295,58.007,26.151,57.642,57.64C872.712,148.829,846.695,174.51,815.445,174.379z M856.365,117.43
		c0.094-22.758-17.852-41.166-40.344-41.384c-22.346-0.216-41.164,18.318-41.299,40.676c-0.138,22.719,17.84,40.881,40.587,41.001
		C838.405,157.846,856.27,140.313,856.365,117.43z"/>
	<path fill="#FFFFFF" d="M1154.087,60.173c15.265,0.562,27.55,7.21,38.107,17.83c3.97,3.994,5.557,8.19,1.498,12.501
		c-4.097,4.351-8.5,3.092-12.498-0.903c-11.955-11.945-26.153-16.513-42.553-11.641c-4.707,1.398-9.327,4.153-13.123,7.32
		c-7.076,5.904-5.629,12.931,3.15,15.963c15.69,5.418,31.572,10.277,47.268,15.68c13.845,4.765,20.982,13.343,20.786,24.698
		c-0.225,12.973-8.765,20.484-18.83,26.198c-21.888,12.428-53.625,6.739-69.487-12.669c-2.023-2.476-2.096-9.069-0.206-11.674
		c3.502-4.825,8.509-2.631,12.275,1.253c12.21,12.593,26.848,15.663,43.423,11.119c1.61-0.441,3.567-0.797,4.616-1.902
		c4.061-4.274,10.285-8.438,11.084-13.388c1.064-6.588-6.904-7.58-12.13-9.353c-14.131-4.795-28.282-9.531-42.447-14.226
		c-10.641-3.527-18.543-9.597-20.098-21.521c-1.454-11.159,4.365-18.778,12.575-25.145
		C1128.319,61.921,1140.83,59.665,1154.087,60.173z"/>
	<path fill="#FFFFFF" d="M932.97,26.793c0,12.729,0,23.998,0,35.268c0,32.208,0.001,64.416-0.003,96.624
		c0,2.26-0.037,4.52-0.071,6.779c-0.081,5.351-2.653,8.871-8.108,8.731c-5.484-0.141-7.747-3.902-7.699-9.176
		c0.021-2.26-0.031-4.52-0.031-6.78c-0.002-40.401-0.002-80.802-0.002-121.204c0-3.05,0-6.1,0-10.244
		c-14.837,0-28.86-0.105-42.88,0.049c-5.992,0.066-10.254-2.094-10.285-8.393c-0.027-5.533,4.193-7.804,9.22-7.818
		c34.467-0.098,68.935-0.1,103.402-0.036c5.393,0.01,9.953,2.353,9.691,8.261c-0.273,6.175-4.851,8.094-10.774,8.005
		C961.651,26.652,947.867,26.793,932.97,26.793z"/>
	<path fill="#FFFFFF" d="M1229.67,76.415c-7.056-0.912-16.135,1.299-16.01-8.718c0.117-9.388,8.89-7.415,16.01-8.749
		c0-11.908,0.081-23.943-0.034-35.977c-0.058-6.128,0.508-11.987,8.42-11.85c7.327,0.127,8.054,5.917,8.092,11.569
		c0.078,11.841,0.024,23.683,0.024,36.965c5.225,0,9.905-0.207,14.558,0.055c5.225,0.294,9.724,2.133,9.562,8.389
		c-0.16,6.155-4.364,7.96-9.849,7.892c-4.446-0.055-8.892-0.011-13.713-0.011c0,22.294-0.479,43.715,0.228,65.096
		c0.296,8.946,7.816,15.006,16.947,16.336c1.953,0.285,4.471-0.403,5.815,0.592c3.28,2.429,8.137,5.33,8.514,8.498
		c0.648,5.445-4.078,7.808-9.705,7.91c-22.835,0.415-38.022-13.651-38.689-36.852c-0.495-17.239-0.145-34.502-0.17-51.755
		C1229.666,82.762,1229.67,79.718,1229.67,76.415z"/>
	<path fill="#FFFFFF" d="M123.812,123.139c-18.663,0-36.585,0-54.936,0c0-18.367,0-36.291,0-54.839c18.226,0,36.325,0,54.936,0
		C123.812,86.589,123.812,104.483,123.812,123.139z"/>
	<path fill="#FFFFFF" d="M192.134,69.397c0,16.94,0,33.487,0,50.697c-17.197,0-34.172,0-51.604,0c0-16.997,0-33.522,0-50.697
		C157.569,69.397,174.371,69.397,192.134,69.397z"/>
	<path fill="#FFFFFF" d="M0,69.625c16.923,0,33.184,0,49.942,0c0,16.634,0,32.871,0,49.808c-16.374,0-32.832,0-49.942,0
		C0,103.207,0,86.764,0,69.625z"/>
	<path fill="#FFFFFF" d="M72.779,142.619c16.767,0,32.801,0,49.379,0c0,16.598,0,32.824,0,49.691c-16.368,0-32.589,0-49.379,0
		C72.779,175.785,72.779,159.149,72.779,142.619z"/>
	<path fill="#FFFFFF" d="M72.596,48.227c0-16.355,0-32.036,0-48.227c16.339,0,32.287,0,48.982,0c0,15.814,0,31.674,0,48.227
		C105.545,48.227,89.412,48.227,72.596,48.227z"/>
	<path fill="#FFFFFF" d="M406.375,116.453c-0.001-14.981,0.106-29.963-0.053-44.942c-0.064-5.979,0.956-11.211,8.107-11.333
		c6.723-0.115,8.222,5.028,8.233,10.547c0.064,30.809,0.068,61.619,0.001,92.428c-0.013,5.815-1.536,11.358-8.694,10.991
		c-6.434-0.33-7.69-5.372-7.641-11.053C406.464,147.546,406.375,131.999,406.375,116.453z"/>
	<path fill="#FFFFFF" d="M145.521,142.971c13.878,0,27.276,0,41.381,0c0,13.954,0,27.789,0,41.996c-13.924,0-27.586,0-41.381,0
		C145.521,170.75,145.521,157.084,145.521,142.971z"/>
	<path fill="#FFFFFF" d="M186.796,5.286c0,13.574,0,26.196,0,39.523c-13.322,0-26.4,0-40.191,0c0-12.855,0-25.928,0-39.523
		C159.822,5.286,172.894,5.286,186.796,5.286z"/>
	<path fill="#FFFFFF" d="M9.529,5.236c13.142,0,26.018,0,39.55,0c0,13.199,0,26.264,0,39.8c-13.191,0-26.061,0-39.55,0
		C9.529,31.845,9.529,18.776,9.529,5.236z"/>
	<path fill="#FFFFFF" d="M49.633,147.437c0,2.918,0,4.856,0,6.794c0,10.442,0,20.884,0,32.198c-13.46,0-26.492,0-40.039,0
		c0-12.849,0-25.678,0-38.992C22.801,147.437,35.654,147.437,49.633,147.437z"/>
	<path fill="#FFFFFF" d="M404.44,35.105c0.815-6.478,4.184-10.125,10.514-9.896c5.98,0.216,9.445,4.295,9.456,9.822
		c0.012,5.996-3.84,10.222-10.081,10.116C408.206,45.043,404.812,41.152,404.44,35.105z"/>
</g>
</svg>
